<svg width="1000" height="1000" viewBox="0 0 1000 1000" fill="none" xmlns="http://www.w3.org/2000/svg">
<path d="M686.389 475.252C686.066 509.793 686.228 540.445 684.893 570.979C684.713 575.73 678.423 582.639 673.489 584.462C615.471 605.597 557.453 626.733 498.897 646.118C464.454 657.554 449.71 646.033 447.038 609.882C445.705 591.928 445.018 573.745 442.361 555.934C438.933 532.739 428.334 526.542 405.941 532.268C404.452 532.632 403.112 533.186 401.649 533.622C357.682 546.778 335.535 576.15 335.208 621.736C335.083 638.994 335.054 656.298 334.857 673.581C334.65 695.259 304.689 712.692 280.286 717C280.286 717 279.795 657.769 280.099 630.265C280.638 582.153 281.658 534.031 281.402 485.956C281.329 471.112 285.209 462.873 300.434 458.143C334.217 447.586 385.785 433.843 419.441 422.927C450.197 412.955 460.86 420.018 464.667 452.292C466.537 467.875 466.314 483.713 466.814 499.538C467.984 535.329 481.506 545.909 515.835 534.836C555.245 522.131 594.047 507.701 633.102 493.989C649.346 488.253 665.663 482.491 686.363 475.18L686.389 475.252Z" fill="#FF6100"/>
<path d="M720.975 313.936C720.677 348.548 720.839 379.2 719.602 409.781C719.396 414.46 713.127 421.2 708.193 423.023C657.363 441.62 606.435 460.17 554.995 477.043C525.584 486.702 510.336 475.358 507.426 444.707C505.707 426.808 505.215 408.717 503.184 390.848C499.881 362.517 488.926 355.314 462.056 364.156C428.451 375.216 395.248 387.184 361.845 398.818C354.873 401.28 347.901 403.743 337.191 407.525C337.565 373.128 337.369 341.922 338.813 310.783C339.002 306.514 346.76 300.784 352.197 298.783C396.034 282.818 439.998 267.211 484.17 252.42C508.976 244.145 519.77 250.435 523.8 276.246C526.575 293.934 526.395 312.181 527.005 330.148C528.175 365.94 541.816 376.397 576.161 364.914C623.259 349.252 669.823 332.08 721 314.007L720.975 313.936Z" fill="#FF6100"/>
</svg>
